<svg xmlns="http://www.w3.org/2000/svg" width="1024" height="1024" viewBox="0 0 1024 1024">
  <defs>
    <linearGradient id="pin-grad" x1="0" y1="0" x2="0" y2="1">
      <stop offset="0%" stop-color="#ffffff"/>
      <stop offset="100%" stop-color="#e0e0e0"/>
    </linearGradient>
  </defs>
  <rect width="1024" height="1024" rx="224" fill="#1a1a1a"/>
  <g transform="translate(512,512)">
    <!-- Pin shadow -->
    <path d="M0-340a120 120 0 0 0-120 120c0 90 120 200 120 200s120-110 120-200a120 120 0 0 0-120-120Z"
          fill="#000000" opacity="0.2"
          transform="translate(8,12)"/>
    <!-- Pin body -->
    <path d="M0-340a120 120 0 0 0-120 120c0 90 120 200 120 200s120-110 120-200a120 120 0 0 0-120-120Z"
          fill="url(#pin-grad)" stroke="#ffffff" stroke-width="16"/>
    <!-- Inner dot -->
    <circle cx="0" cy="-230" r="48" fill="#1a1a1a"/>
  </g>
</svg>
